<mxfile host="app.diagrams.net" modified="2022-05-02T19:09:19.559Z" agent="5.0 (Windows NT 10.0; Win64; x64) AppleWebKit/537.36 (KHTML, like Gecko) Chrome/100.0.4896.127 Safari/537.36 Edg/100.0.1185.50" etag="PQ6PZGCv4BfibaeLrlhS" version="17.4.6" type="github">
  <diagram id="5J8DTs-P3mHy9EQsDy-h" name="Page-1">
    <mxGraphModel dx="2305" dy="1292" grid="1" gridSize="10" guides="1" tooltips="1" connect="1" arrows="1" fold="1" page="1" pageScale="1" pageWidth="850" pageHeight="1100" math="0" shadow="0">
      <root>
        <mxCell id="0" />
        <mxCell id="1" parent="0" />
        <mxCell id="A02GJFYDGRBOG6g-rSAW-23" value="casa" style="rounded=0;whiteSpace=wrap;html=1;shadow=0;glass=0;strokeColor=default;strokeWidth=2;fillColor=#FFFFFF;" vertex="1" parent="1">
          <mxGeometry x="425" y="890" width="75" height="200" as="geometry" />
        </mxCell>
        <mxCell id="A02GJFYDGRBOG6g-rSAW-24" value="casa" style="rounded=0;whiteSpace=wrap;html=1;shadow=0;glass=0;strokeColor=default;strokeWidth=2;fillColor=#FFFFFF;" vertex="1" parent="1">
          <mxGeometry x="425" y="20" width="75" height="850" as="geometry" />
        </mxCell>
        <mxCell id="A02GJFYDGRBOG6g-rSAW-2" value="" style="rounded=0;whiteSpace=wrap;html=1;strokeColor=default;shadow=0;glass=0;perimeterSpacing=5;strokeWidth=11;" vertex="1" parent="1">
          <mxGeometry x="75" y="50" width="361" height="800" as="geometry" />
        </mxCell>
        <mxCell id="A02GJFYDGRBOG6g-rSAW-3" value="" style="rounded=0;whiteSpace=wrap;html=1;fillColor=#000000;" vertex="1" parent="1">
          <mxGeometry x="75" y="930" width="10" height="150" as="geometry" />
        </mxCell>
        <mxCell id="A02GJFYDGRBOG6g-rSAW-4" value="" style="rounded=0;whiteSpace=wrap;html=1;fillColor=#000000;" vertex="1" parent="1">
          <mxGeometry x="75" y="920" width="365" height="10" as="geometry" />
        </mxCell>
        <mxCell id="A02GJFYDGRBOG6g-rSAW-5" value="" style="rounded=0;whiteSpace=wrap;html=1;fillColor=#000000;" vertex="1" parent="1">
          <mxGeometry x="75" y="690" width="355" height="10" as="geometry" />
        </mxCell>
        <mxCell id="A02GJFYDGRBOG6g-rSAW-6" value="" style="rounded=0;whiteSpace=wrap;html=1;fillColor=#000000;" vertex="1" parent="1">
          <mxGeometry x="75" y="350" width="355" height="10" as="geometry" />
        </mxCell>
        <mxCell id="A02GJFYDGRBOG6g-rSAW-7" value="" style="rounded=0;whiteSpace=wrap;html=1;fillColor=#000000;" vertex="1" parent="1">
          <mxGeometry x="75" y="190" width="355" height="10" as="geometry" />
        </mxCell>
        <mxCell id="A02GJFYDGRBOG6g-rSAW-8" value="" style="rounded=0;whiteSpace=wrap;html=1;fillColor=#000000;" vertex="1" parent="1">
          <mxGeometry x="75" y="510" width="355" height="10" as="geometry" />
        </mxCell>
        <mxCell id="A02GJFYDGRBOG6g-rSAW-9" value="8000" style="text;html=1;resizable=0;autosize=1;align=center;verticalAlign=middle;points=[];fillColor=none;strokeColor=none;rounded=0;shadow=0;glass=0;" vertex="1" parent="1">
          <mxGeometry x="20" y="450" width="40" height="20" as="geometry" />
        </mxCell>
        <mxCell id="A02GJFYDGRBOG6g-rSAW-10" value="3500" style="text;html=1;resizable=0;autosize=1;align=center;verticalAlign=middle;points=[];fillColor=none;strokeColor=none;rounded=0;shadow=0;glass=0;" vertex="1" parent="1">
          <mxGeometry x="230" y="20" width="40" height="20" as="geometry" />
        </mxCell>
        <mxCell id="A02GJFYDGRBOG6g-rSAW-11" value="1500" style="text;html=1;resizable=0;autosize=1;align=center;verticalAlign=middle;points=[];fillColor=none;strokeColor=none;rounded=0;shadow=0;glass=0;" vertex="1" parent="1">
          <mxGeometry x="100" y="1000" width="40" height="20" as="geometry" />
        </mxCell>
        <mxCell id="A02GJFYDGRBOG6g-rSAW-12" value="" style="rounded=0;whiteSpace=wrap;html=1;shadow=0;glass=0;strokeColor=default;strokeWidth=11;fillColor=#000000;" vertex="1" parent="1">
          <mxGeometry x="658" y="46" width="10" height="799" as="geometry" />
        </mxCell>
        <mxCell id="A02GJFYDGRBOG6g-rSAW-13" value="" style="rounded=0;whiteSpace=wrap;html=1;fillColor=#000000;rotation=90;" vertex="1" parent="1">
          <mxGeometry x="738" y="770" width="10" height="150" as="geometry" />
        </mxCell>
        <mxCell id="A02GJFYDGRBOG6g-rSAW-14" value="" style="rounded=0;whiteSpace=wrap;html=1;fillColor=#000000;rotation=90;" vertex="1" parent="1">
          <mxGeometry x="738" y="280" width="10" height="150" as="geometry" />
        </mxCell>
        <mxCell id="A02GJFYDGRBOG6g-rSAW-15" value="" style="rounded=0;whiteSpace=wrap;html=1;fillColor=#000000;rotation=90;" vertex="1" parent="1">
          <mxGeometry x="738" y="460" width="10" height="150" as="geometry" />
        </mxCell>
        <mxCell id="A02GJFYDGRBOG6g-rSAW-16" value="" style="rounded=0;whiteSpace=wrap;html=1;fillColor=#000000;rotation=90;" vertex="1" parent="1">
          <mxGeometry x="738" y="620" width="10" height="150" as="geometry" />
        </mxCell>
        <mxCell id="A02GJFYDGRBOG6g-rSAW-18" value="" style="rounded=0;whiteSpace=wrap;html=1;fillColor=#000000;rotation=90;" vertex="1" parent="1">
          <mxGeometry x="738" y="-30" width="10" height="150" as="geometry" />
        </mxCell>
        <mxCell id="A02GJFYDGRBOG6g-rSAW-19" value="" style="rounded=0;whiteSpace=wrap;html=1;fillColor=#000000;rotation=90;" vertex="1" parent="1">
          <mxGeometry x="738" y="120" width="10" height="150" as="geometry" />
        </mxCell>
        <mxCell id="A02GJFYDGRBOG6g-rSAW-20" value="" style="curved=1;endArrow=classic;html=1;rounded=0;startArrow=none;" edge="1" parent="1" source="A02GJFYDGRBOG6g-rSAW-35">
          <mxGeometry width="50" height="50" relative="1" as="geometry">
            <mxPoint x="60" y="1080" as="sourcePoint" />
            <mxPoint x="550" y="1090" as="targetPoint" />
            <Array as="points">
              <mxPoint x="210" y="1080" />
              <mxPoint x="300" y="1090" />
              <mxPoint x="400" y="1070" />
            </Array>
          </mxGeometry>
        </mxCell>
        <mxCell id="A02GJFYDGRBOG6g-rSAW-21" value="" style="curved=1;endArrow=classic;html=1;rounded=0;startArrow=none;" edge="1" parent="1" source="A02GJFYDGRBOG6g-rSAW-41">
          <mxGeometry width="50" height="50" relative="1" as="geometry">
            <mxPoint x="818" y="980" as="sourcePoint" />
            <mxPoint x="828" y="10" as="targetPoint" />
            <Array as="points" />
          </mxGeometry>
        </mxCell>
        <mxCell id="A02GJFYDGRBOG6g-rSAW-25" value="" style="ellipse;whiteSpace=wrap;html=1;aspect=fixed;rounded=0;shadow=0;glass=0;strokeColor=default;strokeWidth=2;fillColor=#FFFFFF;" vertex="1" parent="1">
          <mxGeometry x="105" y="90" width="40" height="40" as="geometry" />
        </mxCell>
        <mxCell id="A02GJFYDGRBOG6g-rSAW-26" value="" style="ellipse;whiteSpace=wrap;html=1;aspect=fixed;rounded=0;shadow=0;glass=0;strokeColor=default;strokeWidth=2;fillColor=#FFFFFF;" vertex="1" parent="1">
          <mxGeometry x="340" y="420" width="30" height="30" as="geometry" />
        </mxCell>
        <mxCell id="A02GJFYDGRBOG6g-rSAW-27" value="" style="ellipse;whiteSpace=wrap;html=1;aspect=fixed;rounded=0;shadow=0;glass=0;strokeColor=default;strokeWidth=2;fillColor=#FFFFFF;" vertex="1" parent="1">
          <mxGeometry x="225" y="620" width="40" height="40" as="geometry" />
        </mxCell>
        <mxCell id="A02GJFYDGRBOG6g-rSAW-28" value="Actor" style="shape=umlActor;verticalLabelPosition=bottom;verticalAlign=top;html=1;outlineConnect=0;rounded=0;shadow=0;glass=0;strokeColor=default;strokeWidth=2;fillColor=#FFFFFF;" vertex="1" parent="1">
          <mxGeometry x="110" y="860" width="30" height="60" as="geometry" />
        </mxCell>
        <mxCell id="A02GJFYDGRBOG6g-rSAW-29" value="Actor" style="shape=umlActor;verticalLabelPosition=bottom;verticalAlign=top;html=1;outlineConnect=0;rounded=0;shadow=0;glass=0;strokeColor=default;strokeWidth=2;fillColor=#FFFFFF;" vertex="1" parent="1">
          <mxGeometry x="220" y="860" width="35" height="60" as="geometry" />
        </mxCell>
        <mxCell id="A02GJFYDGRBOG6g-rSAW-30" value="Actor" style="shape=umlActor;verticalLabelPosition=bottom;verticalAlign=top;html=1;outlineConnect=0;rounded=0;shadow=0;glass=0;strokeColor=default;strokeWidth=2;fillColor=#FFFFFF;" vertex="1" parent="1">
          <mxGeometry x="320" y="860" width="30" height="60" as="geometry" />
        </mxCell>
        <mxCell id="A02GJFYDGRBOG6g-rSAW-32" value="Actor" style="shape=umlActor;verticalLabelPosition=bottom;verticalAlign=top;html=1;outlineConnect=0;rounded=0;shadow=0;glass=0;strokeColor=default;strokeWidth=2;fillColor=#FFFFFF;rotation=-90;" vertex="1" parent="1">
          <mxGeometry x="548" y="30" width="70" height="140" as="geometry" />
        </mxCell>
        <mxCell id="A02GJFYDGRBOG6g-rSAW-33" value="Actor" style="shape=umlActor;verticalLabelPosition=bottom;verticalAlign=top;html=1;outlineConnect=0;rounded=0;shadow=0;glass=0;strokeColor=default;strokeWidth=2;fillColor=#FFFFFF;rotation=-90;" vertex="1" parent="1">
          <mxGeometry x="578" y="380" width="50" height="100" as="geometry" />
        </mxCell>
        <mxCell id="A02GJFYDGRBOG6g-rSAW-34" value="Actor" style="shape=umlActor;verticalLabelPosition=bottom;verticalAlign=top;html=1;outlineConnect=0;rounded=0;shadow=0;glass=0;strokeColor=default;strokeWidth=2;fillColor=#FFFFFF;rotation=-90;" vertex="1" parent="1">
          <mxGeometry x="548" y="570" width="70" height="140" as="geometry" />
        </mxCell>
        <mxCell id="A02GJFYDGRBOG6g-rSAW-35" value="" style="whiteSpace=wrap;html=1;aspect=fixed;rounded=0;shadow=0;glass=0;strokeColor=default;strokeWidth=2;fillColor=#FFFFFF;" vertex="1" parent="1">
          <mxGeometry x="60" y="1050" width="40" height="40" as="geometry" />
        </mxCell>
        <mxCell id="A02GJFYDGRBOG6g-rSAW-36" value="" style="curved=1;endArrow=none;html=1;rounded=0;" edge="1" parent="1" target="A02GJFYDGRBOG6g-rSAW-35">
          <mxGeometry width="50" height="50" relative="1" as="geometry">
            <mxPoint x="60" y="1080" as="sourcePoint" />
            <mxPoint x="550" y="1090" as="targetPoint" />
            <Array as="points" />
          </mxGeometry>
        </mxCell>
        <mxCell id="A02GJFYDGRBOG6g-rSAW-38" value="" style="curved=1;endArrow=none;html=1;rounded=0;startArrow=none;" edge="1" parent="1" source="A02GJFYDGRBOG6g-rSAW-43" target="A02GJFYDGRBOG6g-rSAW-37">
          <mxGeometry width="50" height="50" relative="1" as="geometry">
            <mxPoint x="818" y="980" as="sourcePoint" />
            <mxPoint x="828" y="10" as="targetPoint" />
            <Array as="points">
              <mxPoint x="828" y="520" />
            </Array>
          </mxGeometry>
        </mxCell>
        <mxCell id="A02GJFYDGRBOG6g-rSAW-39" value="" style="whiteSpace=wrap;html=1;aspect=fixed;rounded=0;shadow=0;glass=0;strokeColor=default;strokeWidth=2;fillColor=#FFFFFF;" vertex="1" parent="1">
          <mxGeometry x="798" y="25" width="40" height="40" as="geometry" />
        </mxCell>
        <mxCell id="A02GJFYDGRBOG6g-rSAW-40" value="" style="whiteSpace=wrap;html=1;aspect=fixed;rounded=0;shadow=0;glass=0;strokeColor=default;strokeWidth=2;fillColor=#FFFFFF;" vertex="1" parent="1">
          <mxGeometry x="798" y="170" width="40" height="40" as="geometry" />
        </mxCell>
        <mxCell id="A02GJFYDGRBOG6g-rSAW-47" value="" style="edgeStyle=orthogonalEdgeStyle;rounded=0;orthogonalLoop=1;jettySize=auto;html=1;" edge="1" parent="1" source="A02GJFYDGRBOG6g-rSAW-43" target="A02GJFYDGRBOG6g-rSAW-42">
          <mxGeometry relative="1" as="geometry" />
        </mxCell>
        <mxCell id="A02GJFYDGRBOG6g-rSAW-44" value="" style="curved=1;endArrow=none;html=1;rounded=0;" edge="1" parent="1" target="A02GJFYDGRBOG6g-rSAW-43">
          <mxGeometry width="50" height="50" relative="1" as="geometry">
            <mxPoint x="818" y="980" as="sourcePoint" />
            <mxPoint x="818.625" y="820" as="targetPoint" />
            <Array as="points" />
          </mxGeometry>
        </mxCell>
        <mxCell id="A02GJFYDGRBOG6g-rSAW-42" value="" style="whiteSpace=wrap;html=1;aspect=fixed;rounded=0;shadow=0;glass=0;strokeColor=default;strokeWidth=2;fillColor=#FFFFFF;" vertex="1" parent="1">
          <mxGeometry x="798" y="515" width="40" height="40" as="geometry" />
        </mxCell>
        <mxCell id="A02GJFYDGRBOG6g-rSAW-45" value="" style="curved=1;endArrow=none;html=1;rounded=0;startArrow=none;" edge="1" parent="1" source="A02GJFYDGRBOG6g-rSAW-37" target="A02GJFYDGRBOG6g-rSAW-42">
          <mxGeometry width="50" height="50" relative="1" as="geometry">
            <mxPoint x="818.2409638554218" y="820" as="sourcePoint" />
            <mxPoint x="828" y="10" as="targetPoint" />
            <Array as="points" />
          </mxGeometry>
        </mxCell>
        <mxCell id="A02GJFYDGRBOG6g-rSAW-41" value="" style="whiteSpace=wrap;html=1;aspect=fixed;rounded=0;shadow=0;glass=0;strokeColor=default;strokeWidth=2;fillColor=#FFFFFF;" vertex="1" parent="1">
          <mxGeometry x="798" y="335" width="40" height="40" as="geometry" />
        </mxCell>
        <mxCell id="A02GJFYDGRBOG6g-rSAW-46" value="" style="curved=1;endArrow=none;html=1;rounded=0;startArrow=none;" edge="1" parent="1" source="A02GJFYDGRBOG6g-rSAW-42" target="A02GJFYDGRBOG6g-rSAW-41">
          <mxGeometry width="50" height="50" relative="1" as="geometry">
            <mxPoint x="818.3809523809527" y="515.0000000000002" as="sourcePoint" />
            <mxPoint x="828" y="10" as="targetPoint" />
            <Array as="points" />
          </mxGeometry>
        </mxCell>
        <mxCell id="A02GJFYDGRBOG6g-rSAW-43" value="" style="whiteSpace=wrap;html=1;aspect=fixed;rounded=0;shadow=0;glass=0;strokeColor=default;strokeWidth=2;fillColor=#FFFFFF;" vertex="1" parent="1">
          <mxGeometry x="798" y="670" width="40" height="40" as="geometry" />
        </mxCell>
        <mxCell id="A02GJFYDGRBOG6g-rSAW-37" value="" style="whiteSpace=wrap;html=1;aspect=fixed;rounded=0;shadow=0;glass=0;strokeColor=default;strokeWidth=2;fillColor=#FFFFFF;" vertex="1" parent="1">
          <mxGeometry x="798" y="820" width="40" height="40" as="geometry" />
        </mxCell>
      </root>
    </mxGraphModel>
  </diagram>
</mxfile>
